<svg xmlns="http://www.w3.org/2000/svg" xmlns:xlink="http://www.w3.org/1999/xlink" width="300" zoomAndPan="magnify" viewBox="0 0 224.87999 74.999997" height="100" preserveAspectRatio="xMidYMid meet" version="1.0"><defs><g/></defs><g fill="#ffffff" fill-opacity="1"><g transform="translate(1.902958, 45.40885)"><g><path d="M 3.804688 -11.269531 L 3.804688 -19.679688 C 3.804688 -19.777344 3.707031 -19.902344 3.53125 -19.902344 L 0.273438 -19.902344 C 0.125 -19.902344 0 -19.777344 0 -19.679688 L 0 -11.269531 Z M 14.878906 -19.902344 L 11.617188 -19.902344 C 11.46875 -19.902344 11.34375 -19.777344 11.34375 -19.679688 L 11.34375 -7.4375 L 3.804688 -7.4375 L 3.804688 -7.464844 L 0 -7.464844 L 0 -0.222656 C 0 -0.125 0.125 0 0.273438 0 L 3.53125 0 C 3.707031 0 3.804688 -0.125 3.804688 -0.222656 L 3.804688 -3.730469 L 11.34375 -3.730469 L 11.34375 -0.222656 C 11.34375 -0.125 11.46875 0 11.617188 0 L 14.878906 0 C 15.050781 0 15.152344 -0.125 15.152344 -0.222656 L 15.152344 -19.679688 C 15.152344 -19.777344 15.050781 -19.902344 14.878906 -19.902344 Z M 14.878906 -19.902344 "/></g></g></g><g fill="#ffffff" fill-opacity="1"><g transform="translate(22.800911, 45.40885)"><g><path d="M 15.871094 -0.375 L 7.886719 -9.777344 L 15.796875 -19.53125 C 15.972656 -19.703125 15.847656 -19.902344 15.574219 -19.902344 L 11.519531 -19.902344 C 11.46875 -19.902344 11.320312 -19.855469 11.296875 -19.828125 L 3.804688 -10.625 L 3.804688 -19.679688 C 3.804688 -19.777344 3.707031 -19.902344 3.558594 -19.902344 L 0.273438 -19.902344 C 0.125 -19.902344 0 -19.777344 0 -19.679688 L 0 -1.21875 C 0 -1.21875 4.851562 -6.71875 5.347656 -7.238281 L 11.144531 -0.0742188 C 11.171875 -0.0507812 11.320312 0 11.371094 0 L 15.648438 0 C 15.898438 0 16.023438 -0.175781 15.871094 -0.375 Z M 15.871094 -0.375 "/></g></g></g><g fill="#ffffff" fill-opacity="1"><g transform="translate(44.519815, 45.40885)"><g><path d="M 3.53125 -19.902344 L 0.273438 -19.902344 C 0.125 -19.902344 0 -19.777344 0 -19.679688 L 0 -11.867188 L 3.804688 -11.867188 L 3.804688 -16.269531 C 8.136719 -16.496094 11.34375 -14.679688 11.34375 -9.953125 C 11.34375 -3.804688 6.21875 -3.558594 3.804688 -3.65625 L 3.804688 -8.035156 L 0 -8.035156 L 0 -0.222656 C 0 -0.125 0.125 0 0.273438 0 L 3.53125 0 C 8.484375 0 15.175781 -1.441406 15.175781 -9.953125 C 15.175781 -18.785156 8.382812 -19.902344 3.53125 -19.902344 Z M 3.53125 -19.902344 "/></g></g></g><g fill="#ffffff" fill-opacity="1"><g transform="translate(65.442647, 45.40885)"><g><path d="M 9.453125 -3.707031 L 3.804688 -3.707031 L 3.804688 -8.183594 L 11.617188 -8.183594 C 11.769531 -8.183594 11.890625 -8.308594 11.890625 -8.410156 L 11.890625 -11.570312 C 11.890625 -11.691406 11.769531 -11.792969 11.617188 -11.792969 L 3.804688 -11.792969 L 3.804688 -16.296875 L 9.453125 -16.296875 L 9.453125 -19.902344 L 0.273438 -19.902344 C 0.125 -19.902344 0 -19.777344 0 -19.679688 L 0 -0.222656 C 0 -0.125 0.125 0 0.273438 0 L 9.453125 0 Z M 9.453125 -3.707031 "/></g></g></g><g fill="#ffffff" fill-opacity="1"><g transform="translate(82.907533, 45.40885)"><g><path d="M 10.375 -16.195312 L 7.761719 -8.90625 L 3.882812 -19.753906 C 3.855469 -19.855469 3.757812 -19.902344 3.632812 -19.902344 L 0.25 -19.902344 C 0.0507812 -19.902344 -0.0507812 -19.753906 0.0234375 -19.605469 L 7.511719 -0.125 C 7.613281 0.0507812 7.910156 0.0507812 7.984375 -0.125 L 14.207031 -16.195312 Z M 10.375 -16.195312 "/></g></g></g><g fill="#ffffff" fill-opacity="1"><g transform="translate(102.810392, 45.40885)"><g><path d="M 10.746094 -3.707031 L 0 -3.707031 L 0 -0.222656 C 0 -0.125 0.125 0 0.273438 0 L 10.746094 0 C 10.921875 0 11.023438 -0.125 11.023438 -0.222656 L 11.023438 -3.457031 C 11.023438 -3.582031 10.921875 -3.707031 10.746094 -3.707031 Z M 3.804688 -7.511719 L 3.804688 -19.679688 C 3.804688 -19.777344 3.707031 -19.902344 3.558594 -19.902344 L 0.273438 -19.902344 C 0.125 -19.902344 0 -19.777344 0 -19.679688 L 0 -7.511719 Z M 3.804688 -7.511719 "/></g></g></g><g fill="#ffffff" fill-opacity="1"><g transform="translate(119.379701, 45.40885)"><g><path d="M 11.445312 -9.902344 C 11.445312 -10.945312 10.625 -11.792969 9.578125 -11.792969 C 8.535156 -11.792969 7.710938 -10.945312 7.710938 -9.902344 C 7.710938 -8.882812 8.535156 -8.035156 9.578125 -8.035156 C 10.625 -8.035156 11.445312 -8.882812 11.445312 -9.902344 Z M 19.15625 -9.976562 C 19.15625 -14.925781 15.949219 -19.902344 9.601562 -19.902344 C 3.160156 -19.902344 0 -14.925781 0 -9.976562 C 0 -5 3.160156 0 9.601562 0 C 15.949219 0 19.15625 -5 19.15625 -9.976562 Z M 15.425781 -9.902344 C 15.425781 -6.691406 13.460938 -3.484375 9.601562 -3.484375 C 5.699219 -3.484375 3.757812 -6.691406 3.757812 -9.902344 C 3.757812 -13.160156 5.699219 -16.394531 9.601562 -16.394531 C 13.460938 -16.394531 15.425781 -13.160156 15.425781 -9.902344 Z M 15.425781 -9.902344 "/></g></g></g><g fill="#ffffff" fill-opacity="1"><g transform="translate(144.457042, 45.40885)"><g><path d="M 11.445312 -9.902344 C 11.445312 -10.945312 10.625 -11.792969 9.578125 -11.792969 C 8.535156 -11.792969 7.710938 -10.945312 7.710938 -9.902344 C 7.710938 -8.882812 8.535156 -8.035156 9.578125 -8.035156 C 10.625 -8.035156 11.445312 -8.882812 11.445312 -9.902344 Z M 19.15625 -9.976562 C 19.15625 -14.925781 15.949219 -19.902344 9.601562 -19.902344 C 3.160156 -19.902344 0 -14.925781 0 -9.976562 C 0 -5 3.160156 0 9.601562 0 C 15.949219 0 19.15625 -5 19.15625 -9.976562 Z M 15.425781 -9.902344 C 15.425781 -6.691406 13.460938 -3.484375 9.601562 -3.484375 C 5.699219 -3.484375 3.757812 -6.691406 3.757812 -9.902344 C 3.757812 -13.160156 5.699219 -16.394531 9.601562 -16.394531 C 13.460938 -16.394531 15.425781 -13.160156 15.425781 -9.902344 Z M 15.425781 -9.902344 "/></g></g></g><g fill="#ffffff" fill-opacity="1"><g transform="translate(169.534383, 45.40885)"><g><path d="M 6.691406 -19.902344 L 0.25 -19.902344 C 0.125 -19.902344 0 -19.777344 0 -19.679688 L 0 -16.246094 L 6.691406 -16.246094 C 7.140625 -16.246094 9.628906 -16.121094 9.628906 -13.933594 C 9.628906 -11.742188 7.191406 -11.691406 6.691406 -11.691406 L 0 -11.691406 L 0 -0.222656 C 0 -0.125 0.125 0 0.25 0 L 3.484375 0 C 3.65625 0 3.730469 -0.125 3.730469 -0.222656 L 3.730469 -8.011719 L 6.691406 -8.011719 C 7.164062 -8.011719 13.410156 -8.085938 13.410156 -13.933594 C 13.410156 -19.777344 7.488281 -19.902344 6.691406 -19.902344 Z M 6.691406 -19.902344 "/></g></g></g><g fill="#ffffff" fill-opacity="1"><g transform="translate(188.591419, 45.40885)"><g><path d="M 9.128906 -11.046875 C 7.710938 -11.71875 6.320312 -11.71875 6.195312 -11.71875 C 4.925781 -11.71875 3.707031 -12.464844 3.707031 -13.90625 C 3.707031 -15.5 4.828125 -16.320312 6.195312 -16.320312 C 7.488281 -16.320312 8.582031 -15.648438 8.632812 -14.230469 C 8.632812 -14.15625 8.757812 -14.03125 8.90625 -14.03125 L 12.015625 -14.03125 C 12.191406 -14.03125 12.316406 -14.15625 12.289062 -14.230469 C 12.242188 -17.613281 9.601562 -19.902344 6.195312 -19.902344 C 3.011719 -19.902344 0 -17.640625 0 -13.90625 C 0 -11.59375 1.167969 -9.828125 3.234375 -8.882812 C 4.675781 -8.210938 6.019531 -8.210938 6.195312 -8.210938 C 7.316406 -8.160156 8.683594 -7.265625 8.683594 -5.796875 C 8.683594 -4.476562 7.511719 -3.582031 6.195312 -3.582031 C 6.195312 -3.582031 6.195312 -3.582031 6.171875 -3.582031 L 6.171875 0 C 6.195312 0 6.195312 0 6.195312 0 C 9.378906 0 12.363281 -2.066406 12.363281 -5.796875 C 12.363281 -8.136719 11.21875 -10.074219 9.128906 -11.046875 Z M 9.128906 -11.046875 "/></g></g></g><g fill="#ffffff" fill-opacity="1"><g transform="translate(170.362778, 65.316666)"><g><path d="M 1.25 -0.359375 C 1.21875 -0.160156 1.175781 -0.03125 1.125 0.03125 C 1.082031 0.09375 0.992188 0.125 0.859375 0.125 C 0.734375 0.125 0.644531 0.109375 0.59375 0.078125 C 0.539062 0.046875 0.515625 0 0.515625 -0.0625 C 0.515625 -0.132812 0.523438 -0.234375 0.546875 -0.359375 L 1.421875 -7.71875 C 1.441406 -7.90625 1.578125 -8 1.828125 -8 L 2.03125 -8 C 2.226562 -8 2.351562 -7.921875 2.40625 -7.765625 L 4.984375 -1.28125 L 5.71875 -7.515625 C 5.738281 -7.691406 5.757812 -7.804688 5.78125 -7.859375 C 5.8125 -7.921875 5.851562 -7.957031 5.90625 -7.96875 C 5.957031 -7.988281 6.035156 -8 6.140625 -8 C 6.242188 -8 6.320312 -7.976562 6.375 -7.9375 C 6.425781 -7.90625 6.453125 -7.851562 6.453125 -7.78125 C 6.453125 -7.71875 6.441406 -7.628906 6.421875 -7.515625 L 5.53125 -0.15625 C 5.507812 0.03125 5.390625 0.125 5.171875 0.125 L 5 0.125 C 4.800781 0.125 4.664062 0.0390625 4.59375 -0.125 L 2 -6.671875 Z M 1.25 -0.359375 "/></g></g></g><g fill="#ffffff" fill-opacity="1"><g transform="translate(177.323731, 65.316666)"><g><path d="M 3.46875 -3.625 C 3.46875 -3.78125 3.421875 -3.894531 3.328125 -3.96875 C 3.234375 -4.050781 3.109375 -4.09375 2.953125 -4.09375 C 2.617188 -4.09375 2.273438 -3.941406 1.921875 -3.640625 C 1.566406 -3.335938 1.347656 -2.9375 1.265625 -2.4375 C 1.835938 -2.4375 2.347656 -2.546875 2.796875 -2.765625 C 3.242188 -2.992188 3.46875 -3.28125 3.46875 -3.625 Z M 0.484375 -1.90625 C 0.484375 -2.34375 0.566406 -2.742188 0.734375 -3.109375 C 0.898438 -3.484375 1.109375 -3.773438 1.359375 -3.984375 C 1.878906 -4.429688 2.421875 -4.65625 2.984375 -4.65625 C 3.328125 -4.65625 3.601562 -4.570312 3.8125 -4.40625 C 4.03125 -4.25 4.140625 -4.019531 4.140625 -3.71875 C 4.140625 -3.175781 3.859375 -2.734375 3.296875 -2.390625 C 2.734375 -2.054688 2.046875 -1.890625 1.234375 -1.890625 C 1.234375 -1.429688 1.335938 -1.070312 1.546875 -0.8125 C 1.765625 -0.5625 2.070312 -0.4375 2.46875 -0.4375 C 2.664062 -0.4375 2.851562 -0.472656 3.03125 -0.546875 C 3.207031 -0.628906 3.347656 -0.71875 3.453125 -0.8125 L 3.609375 -0.921875 C 3.671875 -0.921875 3.726562 -0.875 3.78125 -0.78125 C 3.832031 -0.695312 3.859375 -0.609375 3.859375 -0.515625 C 3.859375 -0.398438 3.695312 -0.265625 3.375 -0.109375 C 3.050781 0.046875 2.738281 0.125 2.4375 0.125 C 1.800781 0.125 1.316406 -0.046875 0.984375 -0.390625 C 0.648438 -0.742188 0.484375 -1.25 0.484375 -1.90625 Z M 0.484375 -1.90625 "/></g></g></g><g fill="#ffffff" fill-opacity="1"><g transform="translate(181.546099, 65.316666)"><g><path d="M 3.5 -4.234375 C 3.5 -4.410156 3.523438 -4.523438 3.578125 -4.578125 C 3.628906 -4.628906 3.710938 -4.65625 3.828125 -4.65625 C 3.953125 -4.65625 4.03125 -4.628906 4.0625 -4.578125 C 4.101562 -4.523438 4.125 -4.410156 4.125 -4.234375 C 4.125 -3.609375 3.984375 -2.953125 3.703125 -2.265625 C 3.421875 -1.578125 3.066406 -1.003906 2.640625 -0.546875 C 2.210938 -0.0976562 1.804688 0.125 1.421875 0.125 C 1.210938 0.125 1.101562 0.0078125 1.09375 -0.21875 L 0.515625 -4.4375 C 0.515625 -4.582031 0.617188 -4.65625 0.828125 -4.65625 C 0.960938 -4.65625 1.050781 -4.628906 1.09375 -4.578125 C 1.144531 -4.535156 1.179688 -4.441406 1.203125 -4.296875 L 1.71875 -0.546875 C 2.695312 -1.148438 3.289062 -2.378906 3.5 -4.234375 Z M 3.5 -4.234375 "/></g></g></g><g fill="#ffffff" fill-opacity="1"><g transform="translate(185.841738, 65.316666)"><g><path d="M 3.46875 -3.625 C 3.46875 -3.78125 3.421875 -3.894531 3.328125 -3.96875 C 3.234375 -4.050781 3.109375 -4.09375 2.953125 -4.09375 C 2.617188 -4.09375 2.273438 -3.941406 1.921875 -3.640625 C 1.566406 -3.335938 1.347656 -2.9375 1.265625 -2.4375 C 1.835938 -2.4375 2.347656 -2.546875 2.796875 -2.765625 C 3.242188 -2.992188 3.46875 -3.28125 3.46875 -3.625 Z M 0.484375 -1.90625 C 0.484375 -2.34375 0.566406 -2.742188 0.734375 -3.109375 C 0.898438 -3.484375 1.109375 -3.773438 1.359375 -3.984375 C 1.878906 -4.429688 2.421875 -4.65625 2.984375 -4.65625 C 3.328125 -4.65625 3.601562 -4.570312 3.8125 -4.40625 C 4.03125 -4.25 4.140625 -4.019531 4.140625 -3.71875 C 4.140625 -3.175781 3.859375 -2.734375 3.296875 -2.390625 C 2.734375 -2.054688 2.046875 -1.890625 1.234375 -1.890625 C 1.234375 -1.429688 1.335938 -1.070312 1.546875 -0.8125 C 1.765625 -0.5625 2.070312 -0.4375 2.46875 -0.4375 C 2.664062 -0.4375 2.851562 -0.472656 3.03125 -0.546875 C 3.207031 -0.628906 3.347656 -0.71875 3.453125 -0.8125 L 3.609375 -0.921875 C 3.671875 -0.921875 3.726562 -0.875 3.78125 -0.78125 C 3.832031 -0.695312 3.859375 -0.609375 3.859375 -0.515625 C 3.859375 -0.398438 3.695312 -0.265625 3.375 -0.109375 C 3.050781 0.046875 2.738281 0.125 2.4375 0.125 C 1.800781 0.125 1.316406 -0.046875 0.984375 -0.390625 C 0.648438 -0.742188 0.484375 -1.25 0.484375 -1.90625 Z M 0.484375 -1.90625 "/></g></g></g><g fill="#ffffff" fill-opacity="1"><g transform="translate(190.064105, 65.316666)"><g><path d="M 3.171875 -4.046875 C 2.722656 -4.046875 2.351562 -3.820312 2.0625 -3.375 C 1.769531 -2.9375 1.585938 -2.40625 1.515625 -1.78125 L 1.3125 -0.09375 C 1.289062 0.0507812 1.144531 0.125 0.875 0.125 C 0.789062 0.125 0.726562 0.113281 0.6875 0.09375 C 0.65625 0.0703125 0.640625 0.0195312 0.640625 -0.0625 L 1.15625 -4.421875 C 1.175781 -4.578125 1.296875 -4.65625 1.515625 -4.65625 C 1.734375 -4.65625 1.84375 -4.59375 1.84375 -4.46875 L 1.75 -3.78125 L 1.796875 -3.78125 C 1.960938 -4.0625 2.179688 -4.285156 2.453125 -4.453125 C 2.734375 -4.628906 3.023438 -4.71875 3.328125 -4.71875 C 3.503906 -4.71875 3.59375 -4.648438 3.59375 -4.515625 C 3.59375 -4.390625 3.566406 -4.289062 3.515625 -4.21875 C 3.429688 -4.101562 3.316406 -4.046875 3.171875 -4.046875 Z M 3.171875 -4.046875 "/></g></g></g><g fill="#ffffff" fill-opacity="1"><g transform="translate(193.517108, 65.316666)"><g/></g></g><g fill="#ffffff" fill-opacity="1"><g transform="translate(196.081665, 65.316666)"><g><path d="M 0.859375 0.125 C 0.628906 0.125 0.515625 0.0507812 0.515625 -0.09375 L 0.515625 -0.140625 L 1.453125 -7.65625 C 1.472656 -7.769531 1.554688 -7.835938 1.703125 -7.859375 C 2.148438 -7.953125 2.742188 -8 3.484375 -8 C 4.222656 -8 4.804688 -7.847656 5.234375 -7.546875 C 5.660156 -7.242188 5.875 -6.800781 5.875 -6.21875 C 5.875 -5.71875 5.695312 -5.285156 5.34375 -4.921875 C 5 -4.554688 4.523438 -4.316406 3.921875 -4.203125 C 4.328125 -4.023438 4.640625 -3.691406 4.859375 -3.203125 C 4.960938 -2.960938 5.0625 -2.691406 5.15625 -2.390625 C 5.25 -2.097656 5.3125 -1.921875 5.34375 -1.859375 L 5.90625 -0.1875 C 5.914062 -0.175781 5.921875 -0.144531 5.921875 -0.09375 C 5.921875 -0.0390625 5.882812 0.00390625 5.8125 0.046875 C 5.738281 0.0976562 5.648438 0.125 5.546875 0.125 C 5.359375 0.125 5.242188 0.0546875 5.203125 -0.078125 L 4.5625 -1.96875 C 4.394531 -2.457031 4.242188 -2.835938 4.109375 -3.109375 C 3.984375 -3.390625 3.828125 -3.585938 3.640625 -3.703125 C 3.460938 -3.816406 3.15625 -3.875 2.71875 -3.875 L 1.671875 -3.875 L 1.21875 -0.125 C 1.207031 -0.03125 1.171875 0.03125 1.109375 0.0625 C 1.054688 0.101562 0.972656 0.125 0.859375 0.125 Z M 2.828125 -4.484375 C 3.316406 -4.484375 3.804688 -4.613281 4.296875 -4.875 C 4.546875 -5 4.75 -5.175781 4.90625 -5.40625 C 5.0625 -5.644531 5.140625 -5.910156 5.140625 -6.203125 C 5.140625 -6.585938 4.976562 -6.890625 4.65625 -7.109375 C 4.332031 -7.328125 3.925781 -7.4375 3.4375 -7.4375 C 2.957031 -7.4375 2.515625 -7.398438 2.109375 -7.328125 L 1.765625 -4.484375 Z M 2.828125 -4.484375 "/></g></g></g><g fill="#ffffff" fill-opacity="1"><g transform="translate(202.483906, 65.316666)"><g><path d="M 1.078125 -1.125 C 1.078125 -0.945312 1.140625 -0.796875 1.265625 -0.671875 C 1.390625 -0.546875 1.554688 -0.484375 1.765625 -0.484375 C 2.140625 -0.484375 2.457031 -0.671875 2.71875 -1.046875 C 2.988281 -1.429688 3.160156 -1.863281 3.234375 -2.34375 C 2.453125 -2.28125 1.894531 -2.144531 1.5625 -1.9375 C 1.238281 -1.726562 1.078125 -1.457031 1.078125 -1.125 Z M 4.109375 -3.59375 C 4.109375 -3.425781 4.050781 -3.015625 3.9375 -2.359375 C 3.820312 -1.710938 3.765625 -1.265625 3.765625 -1.015625 C 3.765625 -0.773438 3.78125 -0.578125 3.8125 -0.421875 C 3.851562 -0.265625 3.875 -0.164062 3.875 -0.125 C 3.875 -0.0507812 3.8125 0.00390625 3.6875 0.046875 C 3.5625 0.0976562 3.445312 0.125 3.34375 0.125 C 3.207031 0.125 3.140625 -0.148438 3.140625 -0.703125 L 3.140625 -0.9375 C 2.960938 -0.582031 2.722656 -0.316406 2.421875 -0.140625 C 2.128906 0.0351562 1.820312 0.125 1.5 0.125 C 1.175781 0.125 0.898438 0.03125 0.671875 -0.15625 C 0.453125 -0.351562 0.34375 -0.628906 0.34375 -0.984375 C 0.34375 -1.492188 0.578125 -1.921875 1.046875 -2.265625 C 1.515625 -2.617188 2.285156 -2.828125 3.359375 -2.890625 C 3.390625 -3.078125 3.40625 -3.269531 3.40625 -3.46875 C 3.40625 -3.84375 3.125 -4.03125 2.5625 -4.03125 C 2.28125 -4.03125 1.992188 -3.972656 1.703125 -3.859375 C 1.410156 -3.742188 1.257812 -3.6875 1.25 -3.6875 C 1.164062 -3.6875 1.097656 -3.734375 1.046875 -3.828125 C 1.003906 -3.921875 0.984375 -4.019531 0.984375 -4.125 C 0.984375 -4.226562 1.171875 -4.34375 1.546875 -4.46875 C 1.929688 -4.59375 2.304688 -4.65625 2.671875 -4.65625 C 3.046875 -4.65625 3.378906 -4.566406 3.671875 -4.390625 C 3.960938 -4.222656 4.109375 -3.957031 4.109375 -3.59375 Z M 4.109375 -3.59375 "/></g></g></g><g fill="#ffffff" fill-opacity="1"><g transform="translate(207.072644, 65.316666)"><g><path d="M 6.140625 -4.3125 C 6.140625 -4.457031 6.164062 -4.550781 6.21875 -4.59375 C 6.269531 -4.632812 6.359375 -4.65625 6.484375 -4.65625 C 6.609375 -4.65625 6.6875 -4.628906 6.71875 -4.578125 C 6.757812 -4.523438 6.78125 -4.410156 6.78125 -4.234375 C 6.78125 -3.609375 6.640625 -2.953125 6.359375 -2.265625 C 6.078125 -1.578125 5.722656 -1.003906 5.296875 -0.546875 C 4.867188 -0.0976562 4.460938 0.125 4.078125 0.125 C 3.890625 0.125 3.78125 0.0078125 3.75 -0.21875 L 3.515625 -1.890625 C 3.222656 -1.304688 2.882812 -0.820312 2.5 -0.4375 C 2.125 -0.0625 1.765625 0.125 1.421875 0.125 C 1.234375 0.125 1.125 0.0078125 1.09375 -0.21875 L 0.515625 -4.4375 C 0.515625 -4.582031 0.617188 -4.65625 0.828125 -4.65625 C 0.960938 -4.65625 1.050781 -4.628906 1.09375 -4.578125 C 1.144531 -4.535156 1.179688 -4.441406 1.203125 -4.296875 L 1.71875 -0.546875 C 2.425781 -0.972656 2.976562 -1.765625 3.375 -2.921875 L 3.171875 -4.4375 C 3.171875 -4.582031 3.28125 -4.65625 3.5 -4.65625 C 3.632812 -4.65625 3.722656 -4.628906 3.765625 -4.578125 C 3.804688 -4.535156 3.835938 -4.441406 3.859375 -4.296875 L 4.375 -0.546875 C 4.820312 -0.765625 5.226562 -1.257812 5.59375 -2.03125 C 5.957031 -2.800781 6.140625 -3.5625 6.140625 -4.3125 Z M 6.140625 -4.3125 "/></g></g></g><g fill="#ffffff" fill-opacity="1"><g transform="translate(214.024435, 65.316666)"><g><path d="M 6.140625 -4.3125 C 6.140625 -4.457031 6.164062 -4.550781 6.21875 -4.59375 C 6.269531 -4.632812 6.359375 -4.65625 6.484375 -4.65625 C 6.609375 -4.65625 6.6875 -4.628906 6.71875 -4.578125 C 6.757812 -4.523438 6.78125 -4.410156 6.78125 -4.234375 C 6.78125 -3.609375 6.640625 -2.953125 6.359375 -2.265625 C 6.078125 -1.578125 5.722656 -1.003906 5.296875 -0.546875 C 4.867188 -0.0976562 4.460938 0.125 4.078125 0.125 C 3.890625 0.125 3.78125 0.0078125 3.75 -0.21875 L 3.515625 -1.890625 C 3.222656 -1.304688 2.882812 -0.820312 2.5 -0.4375 C 2.125 -0.0625 1.765625 0.125 1.421875 0.125 C 1.234375 0.125 1.125 0.0078125 1.09375 -0.21875 L 0.515625 -4.4375 C 0.515625 -4.582031 0.617188 -4.65625 0.828125 -4.65625 C 0.960938 -4.65625 1.050781 -4.628906 1.09375 -4.578125 C 1.144531 -4.535156 1.179688 -4.441406 1.203125 -4.296875 L 1.71875 -0.546875 C 2.425781 -0.972656 2.976562 -1.765625 3.375 -2.921875 L 3.171875 -4.4375 C 3.171875 -4.582031 3.28125 -4.65625 3.5 -4.65625 C 3.632812 -4.65625 3.722656 -4.628906 3.765625 -4.578125 C 3.804688 -4.535156 3.835938 -4.441406 3.859375 -4.296875 L 4.375 -0.546875 C 4.820312 -0.765625 5.226562 -1.257812 5.59375 -2.03125 C 5.957031 -2.800781 6.140625 -3.5625 6.140625 -4.3125 Z M 6.140625 -4.3125 "/></g></g></g></svg>